<svg xmlns="http://www.w3.org/2000/svg" viewBox="0 0 128 128" width="128" height="128" fill="none"><metadata><rdf:RDF xmlns:rdf="http://www.w3.org/1999/02/22-rdf-syntax-ns#" xmlns:dc="http://purl.org/dc/elements/1.1/"><rdf:Description><dc:creator>RealFaviconGenerator</dc:creator><dc:source>https://realfavicongenerator.net</dc:source></rdf:Description></rdf:RDF></metadata><defs>
    <linearGradient id="al-water" x1="0" y1="0" x2="0" y2="1">
      <stop offset="0%" stop-color="#7dd3fc" stop-opacity="0.55"></stop>
      <stop offset="60%" stop-color="#38bdf8" stop-opacity="0.25"></stop>
      <stop offset="100%" stop-color="#0ea5e9" stop-opacity="0"></stop>
    </linearGradient>
    <clipPath id="al-lens-clip">
      <circle cx="56" cy="56" r="36"></circle>
    </clipPath>
  </defs><g stroke="#38bdf8" stroke-width="4.5" stroke-linecap="round">
    <line x1="2" y1="62" x2="6" y2="62"></line>
    <line x1="11" y1="62" x2="22" y2="62"></line>
  </g><g stroke="#38bdf8" stroke-width="4.5" stroke-linecap="round">
    <line x1="92" y1="62" x2="105" y2="62"></line>
    <line x1="110" y1="62" x2="114" y2="62"></line>
  </g><circle cx="56" cy="56" r="36" stroke="#0e2a6b" stroke-width="6.5"></circle><g clip-path="url(#al-lens-clip)">
    <rect x="20" y="62" width="72" height="40" fill="url(#al-water)"></rect>
    <!-- Water surface highlight -->
    <line x1="20" y1="62.3" x2="92" y2="62.3" stroke="#38bdf8" stroke-width="1.6" opacity="0.9"></line>
  </g><g stroke="#2563ff" stroke-width="5" stroke-linecap="round" stroke-linejoin="round" fill="none">
    <!-- Left bracket -->
    <path d="M 47 38 L 38 50 L 47 62"></path>
    <!-- Right bracket -->
    <path d="M 65 38 L 74 50 L 65 62"></path>
  </g><line x1="60" y1="36" x2="52" y2="64" stroke="#0e2a6b" stroke-width="5" stroke-linecap="round"></line><g stroke="#38bdf8" stroke-width="5" stroke-linecap="round">
    <line x1="36" y1="74" x2="52" y2="74"></line>
    <line x1="56" y1="74" x2="74" y2="74"></line>
    <line x1="40" y1="82" x2="56" y2="82"></line>
    <line x1="60" y1="82" x2="72" y2="82"></line>
  </g><line x1="83" y1="83" x2="116" y2="116" stroke="#0e2a6b" stroke-width="9" stroke-linecap="round"></line></svg>